<?xml version="1.0" encoding="utf-8"?>
<!-- Generator: Adobe Illustrator 22.0.1, SVG Export Plug-In . SVG Version: 6.00 Build 0)  -->
<svg version="1.1" id="Capa_1" xmlns="http://www.w3.org/2000/svg" xmlns:xlink="http://www.w3.org/1999/xlink" x="0px" y="0px"
	 viewBox="0 0 1366 280" style="enable-background:new 0 0 1366 280;" xml:space="preserve">
<style type="text/css">
	.st0{display:none;}
	.st1{display:inline;fill:#FFFFFF;}
	.st2{fill:none;stroke:#FFFFFF;stroke-width:19;stroke-miterlimit:10;}
	.st3{fill:#FFFFFF;}
	.st4{fill:none;}
</style>
<g id="Horizontal_2_">
	<g>
		<g class="st0">
			<path class="st1" d="M442.2,174.4l-8.7,19.5h-21.9L460,91.3h11.2l48.5,102.5h-22.1l-8.7-19.5H442.2z M482.2,157.7l-16.7-38.8
				l-16.6,38.8H482.2z"/>
			<path class="st1" d="M617.1,182.2c-11,9.6-26.4,13.7-44.1,13.7c-33.7,0-54.7-20.5-54.7-53.1c0-32.8,21.1-53.3,54.5-53.3
				c17.6,0,30.9,5.7,40.8,14.7l-12.9,14.4c-6.8-6.1-16.8-9.9-27.9-9.9c-20.5,0-33.4,13.1-33.4,34.1c0,21.6,13.7,34.4,34.9,34.4
				c9.3,0,17.9-1.6,24.4-6.1v-14.7h-28.2v-17h46.8V182.2z"/>
			<path class="st1" d="M673.4,164.8h-21.1v29h-20.5V91.5h41.5c27,0,41.4,12.9,41.4,36.6c0,16.4-7.3,27.4-20.5,32.8l24.3,33h-24.8
				L673.4,164.8z M693.5,128.8c0-12.9-6.8-19.6-21.6-19.6h-19.5v38h17.7C686,147.2,693.5,139.7,693.5,128.8z"/>
			<path class="st1" d="M726.8,142.7c0-31.2,20.9-53.3,54.3-53.3c32.2,0,54.5,21.2,54.5,53.3c0,31.1-21.1,53.1-54.5,53.1
				C748.9,195.9,726.8,174.8,726.8,142.7z M814.3,142.7c0-19.9-12.8-34.1-33.1-34.1c-19.3,0-33,13.4-33,34.1c0,19.7,12.8,34,33,34
				C800.6,176.7,814.3,163.4,814.3,142.7z"/>
			<path class="st1" d="M847.8,142.5c0-33,20.3-53,53.4-53c20.3,0,35,7.7,44.9,19.7l-15.8,13.5c-6-8.3-15.4-13.7-28.5-13.7
				c-20.2,0-32.7,12.3-32.7,33.4c0,20.9,12.5,34.1,32.7,34.1c13.1,0,22.5-5.4,28.5-13.7l15.8,13.5c-9.9,11.9-23.8,19.5-44.9,19.5
				C868.1,195.9,847.8,175.4,847.8,142.5z"/>
			<path class="st1" d="M975.2,91.5v83.9h54.3v18.4h-74.9V91.5H975.2z"/>
			<path class="st1" d="M1030.6,142.7c0-31.2,20.9-53.3,54.3-53.3c32.2,0,54.5,21.2,54.5,53.3c0,31.1-21.1,53.1-54.5,53.1
				C1052.7,195.9,1030.6,174.8,1030.6,142.7z M1118,142.7c0-19.9-12.8-34.1-33.1-34.1c-19.3,0-33,13.4-33,34.1c0,19.7,12.8,34,33,34
				C1104.4,176.7,1118,163.4,1118,142.7z"/>
			<path class="st1" d="M1149.8,153.5v-62h20.5v57.1c0,19.7,7.4,27.9,23.7,27.9s23.8-8.1,23.8-27.9V91.5h20.5v62
				c0,28-14.8,42.4-44.3,42.4C1165.1,195.9,1149.8,181.5,1149.8,153.5z"/>
			<path class="st1" d="M1292.6,91.5c31.9,0,50.7,16.7,50.7,50c0,32.2-16.8,52.4-49.8,52.4h-41V91.5H1292.6z M1322.2,141.4
				c0-19.6-10-31.1-29.6-31.1h-20V175h20.6C1311.2,175,1322.2,162.6,1322.2,141.4z"/>
		</g>
		<path class="st2" d="M300.1,213.1c-7.6,5.6-17,8.9-27.1,8.9c-17.2,0-32.1-9.5-40.3-23.6c-1.2,0.1-2.3,0.2-3.5,0.2
			c-23.3,0-42.2-19.5-42.2-43.6c0-19.4,12.3-35.8,29.2-41.5c0.6-25.4,20.7-45.7,45.4-45.7c3.2,0,6.3,0.3,9.4,1
			c11.6-28.1,38.6-47.9,70.1-47.9c29.7,0,55.3,17.4,67.9,43c8.5-4,17.9-6.1,27.8-6.1c24.5,0,46.1,13.4,58,33.6
			c0.7-0.1,1.3-0.1,2-0.1c27.8,0,50.3,23.3,50.3,52c0,28.7-22.5,51.9-50.3,51.9h-0.4c-10.5,18.1-29.6,30.2-51.5,30.2
			c-3.7,0-7.4-0.3-10.9-1.1"/>
		<path class="st3" d="M415.8,270.1v-0.4c-53.6-36.1-62.6-93.3-62.6-93.3l14.3,4.9L349,145.2l-13.1,38.2l13-6.5
			c7.4,53.1,47.5,87.3,50,89.4c-86.1-7.8-100.3-70.8-100.3-70.8C274.9,121.3,342.6,48.9,344.4,47c-0.1,0.2-0.3,1.1-0.7,2.6
			c-7.4,30.5,5.3,62.7,31.8,79.5c31.4,20,43.1,49.4,43.1,49.4C434.2,217.7,433.3,249.6,415.8,270.1z"/>
	</g>
	<g id="texto_x5F_agrocloud">
		<g>
			<path class="st3" d="M619,112.4l-7.5,16.9h-19l41.9-88.8h9.7l42,88.8h-19.1l-7.5-16.9H619z M653.6,97.9l-14.5-33.6l-14.3,33.6
				H653.6z"/>
			<path class="st3" d="M768,119.1c-9.6,8.3-22.9,11.8-38.2,11.8c-29.2,0-47.4-17.7-47.4-46c0-28.4,18.2-46.1,47.2-46.1
				c15.2,0,26.8,4.9,35.3,12.7l-11.2,12.4c-5.9-5.3-14.6-8.6-24.1-8.6c-17.7,0-28.9,11.3-28.9,29.6c0,18.7,11.8,29.8,30.2,29.8
				c8,0,15.5-1.4,21.1-5.3V96.8h-24.4V82H768V119.1z"/>
			<path class="st3" d="M814.4,104.1h-18.2v25.1h-17.7V40.5h36c23.4,0,35.8,11.2,35.8,31.7c0,14.2-6.3,23.8-17.7,28.4l21,28.5H832
				L814.4,104.1z M831.7,72.9c0-11.2-5.9-17-18.7-17h-16.9v32.9h15.3C825.3,88.8,831.7,82.3,831.7,72.9z"/>
			<path class="st3" d="M858.3,84.9c0-27,18.1-46.1,47-46.1c27.9,0,47.2,18.4,47.2,46.1c0,26.9-18.2,46-47.2,46
				C877.4,131,858.3,112.7,858.3,84.9z M934,84.9c0-17.2-11.1-29.6-28.7-29.6c-16.7,0-28.5,11.6-28.5,29.6
				c0,17.1,11.1,29.4,28.5,29.4C922.2,114.4,934,102.8,934,84.9z"/>
			<path class="st3" d="M597.1,190.2c0-28.5,17.6-45.9,46.3-45.9c17.6,0,30.3,6.7,38.9,17.1l-13.7,11.7
				c-5.2-7.2-13.3-11.8-24.6-11.8c-17.5,0-28.3,10.7-28.3,28.9c0,18.1,10.8,29.6,28.3,29.6c11.3,0,19.5-4.7,24.6-11.8l13.7,11.7
				c-8.6,10.3-20.6,16.9-38.9,16.9C614.7,236.4,597.1,218.7,597.1,190.2z"/>
			<path class="st3" d="M708.8,146v72.7h47v16h-64.9V146H708.8z"/>
			<path class="st3" d="M758.2,190.4c0-27,18.1-46.1,47-46.1c27.9,0,47.2,18.4,47.2,46.1c0,26.9-18.2,46-47.2,46
				C777.3,236.4,758.2,218.2,758.2,190.4z M833.9,190.4c0-17.2-11.1-29.6-28.7-29.6c-16.7,0-28.5,11.6-28.5,29.6
				c0,17.1,11.1,29.4,28.5,29.4C822.1,219.8,833.9,208.3,833.9,190.4z"/>
			<path class="st3" d="M862.8,199.7V146h17.7v49.4c0,17.1,6.4,24.1,20.5,24.1c14.1,0,20.6-7,20.6-24.1V146h17.7v53.7
				c0,24.3-12.8,36.7-38.4,36.7C876,236.4,862.8,224,862.8,199.7z"/>
			<path class="st3" d="M987.8,146c27.7,0,43.9,14.5,43.9,43.3c0,27.9-14.6,45.4-43.1,45.4h-35.5V146H987.8z M1013.4,189.3
				c0-17-8.7-26.9-25.7-26.9h-17.4v56h17.9C1003.9,218.3,1013.4,207.6,1013.4,189.3z"/>
		</g>
		<path class="st3" d="M793.6,183.5c0.1,2.3-1.3,28.9,10.1,40c-8.9,0.6-15.9-8.2-15.9-8.2c-12.8-17.3,5.8-45,5.8-45
			s3.1,12.7,11.8,19.6c6.3,5,9,12.7,9,12.7c3.4,12.2-4.2,18.3-7.6,20C801,216,794.7,198.4,793.6,183.5z"/>
		<g>
			<polygon class="st4" points="1313.3,23.1 1307.7,23.1 1307.7,23.1 1313.3,23.1 			"/>
		</g>
	</g>
</g>
<g>
</g>
<g>
</g>
<g>
</g>
<g>
</g>
<g>
</g>
<g>
</g>
<g>
</g>
<g>
</g>
<g>
</g>
<g>
</g>
<g>
</g>
<g>
</g>
<g>
</g>
<g>
</g>
<g>
</g>
</svg>
